<svg width="154" height="29" viewBox="0 0 154 29" fill="none" xmlns="http://www.w3.org/2000/svg">
<rect width="154" height="29" fill="white"/>
<rect width="1440" height="2854" fill="white" transform="translate(-625 -2330)"/>
<path fill-rule="evenodd" clip-rule="evenodd" d="M13.7846 0L27.5692 27H0L13.7846 0Z" transform="translate(1 1)" stroke="#F9D656" stroke-width="1.32" stroke-linecap="round" stroke-linejoin="round"/>
<path fill-rule="evenodd" clip-rule="evenodd" d="M6.60513 0L13.2103 13H0L6.60513 0Z" transform="translate(8.17969 10)" stroke="#F9D656" stroke-width="1.32" stroke-linecap="round" stroke-linejoin="round"/>
<path d="M0.292744 0.152983V8.48632" transform="translate(14.4922 1.51367)" stroke="#F9D656" stroke-width="1.32"/>
<path d="M0 5.1284L6.89787 0.152983" transform="translate(27.9893 22.5137) scale(-1 1)" stroke="#F9D656" stroke-width="1.32"/>
<path d="M0 5.1284L6.89787 0.152983" transform="translate(1.56836 22.5137)" stroke="#F9D656" stroke-width="1.32"/>
<path d="M7.077 16.252C10.647 16.252 13.02 14.467 13.02 11.464V11.422C13.02 8.671 10.92 7.579 7.539 6.844C5.502 6.382 4.998 6.088 4.998 5.416V5.374C4.998 4.849 5.481 4.429 6.468 4.429C7.77 4.429 9.24 4.933 10.584 5.878L12.621 3.001C11.025 1.72 9.072 1.048 6.573 1.048C3.045 1.048 0.882 3.022 0.882 5.752V5.794C0.882 8.818 3.297 9.7 6.426 10.414C8.421 10.876 8.904 11.212 8.904 11.821V11.863C8.904 12.493 8.316 12.871 7.224 12.871C5.523 12.871 3.906 12.262 2.457 11.107L0.189 13.816C1.995 15.433 4.473 16.252 7.077 16.252ZM20.7552 16H24.8502V1.3H20.7552V16ZM33.2113 16H37.2013V7.6L40.9393 13.312H41.0233L44.7823 7.558V16H48.8353V1.3H44.5303L41.0233 6.991L37.5163 1.3H33.2113V16ZM57.1128 16H64.6938C68.2008 16 70.2588 14.467 70.2588 11.947V11.905C70.2588 9.91 69.1248 8.902 67.3398 8.314C68.6418 7.747 69.6078 6.739 69.6078 5.038V4.996C69.6078 3.988 69.2508 3.211 68.6628 2.623C67.8018 1.762 66.4998 1.3 64.6518 1.3H57.1128V16ZM61.0818 7.159V4.576H63.7278C64.9458 4.576 65.5758 5.038 65.5758 5.836V5.878C65.5758 6.739 64.8828 7.159 63.6438 7.159H61.0818ZM61.0818 12.724V10.015H64.1898C65.5548 10.015 66.1848 10.54 66.1848 11.338V11.38C66.1848 12.241 65.4708 12.724 64.2318 12.724H61.0818ZM85.1865 16.294C89.7225 16.294 93.1245 12.871 93.1245 8.65V8.608C93.1245 4.387 89.7645 1.006 85.2285 1.006C80.6925 1.006 77.2905 4.429 77.2905 8.65V8.692C77.2905 12.913 80.6505 16.294 85.1865 16.294ZM85.2285 12.619C83.0025 12.619 81.4695 10.771 81.4695 8.65V8.608C81.4695 6.487 82.9605 4.681 85.1865 4.681C87.4335 4.681 88.9665 6.529 88.9665 8.65V8.692C88.9665 10.813 87.4755 12.619 85.2285 12.619ZM100.917 16H112.11V12.43H104.991V1.3H100.917V16Z" transform="translate(41.4922 7)" fill="#1C3144"/>
</svg>
