<svg width="187" height="204" viewBox="0 0 187 204" fill="none" xmlns="http://www.w3.org/2000/svg">
<g clip-path="url(#clip0)">
<path fill-rule="evenodd" clip-rule="evenodd" d="M93.2419 1.79504L184.688 157.67H1.79492L93.2419 1.79504Z" stroke="#F9D656" stroke-width="3.59" stroke-linecap="round" stroke-linejoin="round"/>
<path fill-rule="evenodd" clip-rule="evenodd" d="M93.2418 53.7531L137.06 128.804H49.4238L93.2418 53.7531Z" stroke="#F9D656" stroke-width="3.59" stroke-linecap="round" stroke-linejoin="round"/>
<path d="M93.2412 5.64404V53.754" stroke="#F9D656" stroke-width="3.59"/>
<path d="M180.84 155.603L135.08 126.879" stroke="#F9D656" stroke-width="3.59"/>
<path d="M5.56836 155.603L51.3284 126.879" stroke="#F9D656" stroke-width="3.59"/>
<path d="M68.72 175.48C68.4933 174.253 67.5933 173.64 66.02 173.64C65.18 173.64 64.5333 173.827 64.08 174.2C63.6267 174.56 63.4 175 63.4 175.52C63.4 176.027 63.54 176.413 63.82 176.68C64.1 176.947 64.5533 177.18 65.18 177.38L67.8 178.28C68.6933 178.587 69.4 179.007 69.92 179.54C70.4533 180.073 70.72 180.827 70.72 181.8C70.72 182.76 70.3067 183.573 69.48 184.24C68.6533 184.893 67.5467 185.22 66.16 185.22C64.7733 185.22 63.6333 184.873 62.74 184.18C61.86 183.473 61.4067 182.487 61.38 181.22H62.92C62.92 182.047 63.2067 182.68 63.78 183.12C64.3667 183.56 65.1133 183.78 66.02 183.78C66.94 183.78 67.6667 183.58 68.2 183.18C68.7333 182.767 69 182.287 69 181.74C69 181.18 68.8333 180.74 68.5 180.42C68.18 180.1 67.7 179.833 67.06 179.62L64.84 178.8C63.8 178.453 63.0133 178.04 62.48 177.56C61.9467 177.08 61.68 176.38 61.68 175.46C61.68 174.527 62.0533 173.753 62.8 173.14C63.5467 172.513 64.5933 172.2 65.94 172.2C67.2867 172.2 68.3133 172.5 69.02 173.1C69.74 173.687 70.1533 174.48 70.26 175.48H68.72ZM74.2294 175.42H75.8094V185H74.2294V175.42ZM75.0094 173.18C74.6894 173.18 74.436 173.093 74.2494 172.92C74.076 172.733 73.9894 172.493 73.9894 172.2C73.9894 171.893 74.076 171.653 74.2494 171.48C74.436 171.293 74.6894 171.2 75.0094 171.2C75.3294 171.2 75.5827 171.293 75.7694 171.48C75.9694 171.653 76.0694 171.893 76.0694 172.2C76.0694 172.493 75.9694 172.733 75.7694 172.92C75.5827 173.093 75.3294 173.18 75.0094 173.18ZM81.6259 177.28C82.2526 175.893 83.3259 175.2 84.8459 175.2C85.6726 175.2 86.3659 175.407 86.9259 175.82C87.4859 176.22 87.8926 176.78 88.1459 177.5C88.7459 175.967 89.8593 175.2 91.4859 175.2C92.6326 175.2 93.5193 175.573 94.1459 176.32C94.7726 177.067 95.0859 178.087 95.0859 179.38V185H93.5259V179.38C93.5259 178.46 93.3059 177.767 92.8659 177.3C92.4393 176.833 91.8193 176.6 91.0059 176.6C90.1926 176.6 89.5593 176.933 89.1059 177.6C88.6659 178.267 88.4459 179.187 88.4459 180.36V185H86.8859V179.38C86.8859 178.46 86.6659 177.767 86.2259 177.3C85.7993 176.833 85.1859 176.6 84.3859 176.6C83.5859 176.6 82.9393 176.927 82.4459 177.58C81.9526 178.233 81.6926 179.14 81.6659 180.3V185H80.0859V175.44H81.4459L81.6259 177.28ZM100.377 176.86C101.017 175.753 101.951 175.2 103.177 175.2C104.404 175.2 105.424 175.66 106.237 176.58C107.051 177.487 107.457 178.693 107.457 180.2C107.457 181.693 107.044 182.907 106.217 183.84C105.391 184.76 104.384 185.22 103.197 185.22C102.557 185.22 101.977 185.06 101.457 184.74C100.951 184.42 100.551 183.947 100.257 183.32L99.8973 185H98.7973V171.38H100.377V176.86ZM103.077 176.6C102.317 176.6 101.684 176.847 101.177 177.34C100.671 177.82 100.404 178.493 100.377 179.36V180.92C100.377 181.8 100.637 182.507 101.157 183.04C101.691 183.56 102.331 183.82 103.077 183.82C103.824 183.82 104.471 183.493 105.017 182.84C105.564 182.173 105.837 181.293 105.837 180.2C105.837 179.107 105.564 178.233 105.017 177.58C104.484 176.927 103.837 176.6 103.077 176.6ZM113.917 175.2C115.25 175.2 116.324 175.633 117.137 176.5C117.964 177.367 118.377 178.607 118.377 180.22C118.377 181.82 117.964 183.053 117.137 183.92C116.324 184.787 115.25 185.22 113.917 185.22C112.584 185.22 111.504 184.787 110.677 183.92C109.864 183.053 109.457 181.82 109.457 180.22C109.457 178.607 109.864 177.367 110.677 176.5C111.504 175.633 112.584 175.2 113.917 175.2ZM116.777 180.22C116.777 179.073 116.537 178.18 116.057 177.54C115.577 176.887 114.87 176.56 113.937 176.56C113.017 176.56 112.31 176.887 111.817 177.54C111.324 178.18 111.077 179.073 111.077 180.22C111.077 181.353 111.31 182.247 111.777 182.9C112.244 183.54 112.937 183.86 113.857 183.86C114.79 183.86 115.51 183.54 116.017 182.9C116.524 182.247 116.777 181.353 116.777 180.22ZM121.395 171.38H122.975V185H121.395V171.38Z" fill="#1C3144"/>
</g>
<defs>
<clipPath id="clip0">
<rect width="186.483" height="203.795" fill="white"/>
</clipPath>
</defs>
</svg>
